Coordinates
version=1
nRows=26
nColumns=27
inDegrees=yes

Units are S.I. units (second, meters, Newtons, ...)
If the header above contains a line with 'inDegrees', this indicates whether rotational values are in degrees (yes) or radians (no).

endheader
time	pelvis_rotation	pelvis_tilt	pelvis_list	pelvis_tx	pelvis_ty	pelvis_tz	hip_flexion_r	hip_adduction_r	hip_rotation_r	knee_angle_r	knee_rotation_r	knee_adduction_r	knee_angle_r_beta	ankle_angle_r	subtalar_angle_r	mtp_angle_r	hip_flexion_l	hip_adduction_l	hip_rotation_l	knee_angle_l	knee_rotation_l	knee_adduction_l	knee_angle_l_beta	ankle_angle_l	subtalar_angle_l	mtp_angle_l
      3.06500000	      2.77895263	    -19.46282349	      1.31336198	      0.05848880	      0.82987337	     -1.13381599	     28.97034407	    -26.62434790	    -31.78498833	     13.72915783	      0.00000000	      2.09268399	      0.23961901	     -9.61143270	      0.00000000	      0.00000000	     30.20199170	    -21.41949544	    -13.03018037	      9.63697864	      0.00000000	      7.23238553	      0.16819701	    -13.38477218	      0.00000000	      0.00000000
      3.07000000	      2.73935064	    -19.87651117	      1.50284717	      0.05729034	      0.82953361	     -1.13396520	     29.90806673	    -26.99977637	    -31.70943635	     14.40985102	      0.00000000	      2.41570831	      0.25149934	     -9.36510734	      0.00000000	      0.00000000	     30.83930446	    -21.30051848	    -13.15050662	      9.98597344	      0.00000000	      7.12457632	      0.17428812	    -13.28042485	      0.00000000	      0.00000000
      3.07500000	      2.81328051	    -20.34217567	      1.64520734	      0.05602535	      0.82914865	     -1.13408111	     30.85273226	    -27.37196389	    -31.76920711	     15.14151784	      0.00000000	      2.73718213	      0.26426934	     -9.12822051	      0.00000000	      0.00000000	     31.63769277	    -21.21301334	    -13.07738951	     10.40142315	      0.00000000	      7.03937856	      0.18153908	    -13.14420097	      0.00000000	      0.00000000
      3.08000000	      2.78661856	    -20.84511813	      1.89151507	      0.05456377	      0.82867621	     -1.13427421	     31.99751801	    -27.84211124	    -31.54164384	     15.97369249	      0.00000000	      2.99005407	      0.27879353	     -8.85778176	      0.00000000	      0.00000000	     32.42050116	    -21.05591698	    -13.18659277	     10.83091452	      0.00000000	      6.92998816	      0.18903512	    -13.01052363	      0.00000000	      0.00000000
      3.08500000	      2.51519213	    -21.39874208	      2.43833115	      0.05286444	      0.82801478	     -1.13466390	     33.62735424	    -28.61291277	    -30.81325463	     17.12917015	      0.00000000	      3.31983971	      0.29896042	     -8.45422549	      0.00000000	      0.00000000	     33.04884036	    -20.69249424	    -13.79889522	     11.21344788	      0.00000000	      6.77461887	      0.19571159	    -12.90896652	      0.00000000	      0.00000000
      3.09000000	      2.64461547	    -21.98739337	      2.53205160	      0.05118458	      0.82748006	     -1.13470442	     34.72131740	    -28.93409338	    -30.77435649	     17.87106781	      0.00000000	      3.55589430	      0.31190897	     -8.21966917	      0.00000000	      0.00000000	     34.13345073	    -20.67446998	    -13.58316053	     11.80020470	      0.00000000	      6.66030478	      0.20595242	    -12.74213133	      0.00000000	      0.00000000
      3.09500000	      1.99156448	    -22.72874441	      3.31556931	      0.04885000	      0.82654056	     -1.13520600	     37.11562452	    -29.81320578	    -28.97055543	     19.31802740	      0.00000000	      3.64257772	      0.33716318	     -7.74899947	      0.00000000	      0.00000000	     34.78572075	    -20.23660495	    -14.77992427	     12.27436075	      0.00000000	      6.45955440	      0.21422801	    -12.56399005	      0.00000000	      0.00000000
      3.10000000	      2.51126549	    -23.32436763	      3.27345980	      0.04739405	      0.82596540	     -1.13515533	     37.87907916	    -30.11843312	    -29.66361535	     19.96629565	      0.00000000	      4.02701465	      0.34847760	     -7.61893245	      0.00000000	      0.00000000	     36.16701919	    -20.27641984	    -14.02958481	     13.01372869	      0.00000000	      6.37439065	      0.22713241	    -12.33377758	      0.00000000	      0.00000000
      3.10500000	      2.44317496	    -24.04632310	      3.68325849	      0.04530475	      0.82506745	     -1.13538037	     39.61109037	    -30.72763147	    -28.95064081	     21.06928552	      0.00000000	      4.21813123	      0.36772840	     -7.31219039	      0.00000000	      0.00000000	     37.27471744	    -20.07461999	    -14.28243842	     13.68855359	      0.00000000	      6.21243792	      0.23891033	    -12.12237025	      0.00000000	      0.00000000
      3.11000000	      2.36441614	    -24.81928608	      4.15869928	      0.04304332	      0.82405889	     -1.13564713	     41.50336442	    -31.36561201	    -28.03891762	     22.22190686	      0.00000000	      4.35248921	      0.38784544	     -7.01668509	      0.00000000	      0.00000000	     38.43413575	    -19.84175253	    -14.58526320	     14.39135587	      0.00000000	      6.05836594	      0.25117654	    -11.91264360	      0.00000000	      0.00000000
      3.11500000	      1.58826364	    -25.77218378	      5.24638589	      0.04003800	      0.82262420	     -1.13622981	     44.70922148	    -32.29693667	    -25.34884452	     23.90466127	      0.00000000	      4.26176811	      0.41721505	     -6.58082541	      0.00000000	      0.00000000	     39.24052152	    -19.31041491	    -16.14374430	     14.98133611	      0.00000000	      5.81979747	      0.26147364	    -11.75319729	      0.00000000	      0.00000000
      3.12000000	      2.13667468	    -26.42927641	      5.16449032	      0.03833295	      0.82176855	     -1.13607487	     45.56474008	    -32.58140710	    -25.93434064	     24.58249436	      0.00000000	      4.60522147	      0.42904546	     -6.43252307	      0.00000000	      0.00000000	     40.82398301	    -19.43707943	    -15.37430890	     15.91293097	      0.00000000	      5.66971333	      0.27773304	    -11.45046715	      0.00000000	      0.00000000
      3.12500000	      1.80474682	    -27.21276315	      5.86777187	      0.03585979	      0.82042218	     -1.13636744	     47.94497990	    -33.20669239	    -24.20644407	     25.87432718	      0.00000000	      4.61185938	      0.45159220	     -6.13344061	      0.00000000	      0.00000000	     41.80581183	    -19.16707607	    -16.23893286	     16.61968233	      0.00000000	      5.40880134	      0.29006818	    -11.24362066	      0.00000000	      0.00000000
      3.13000000	      2.07163072	    -27.90776414	      6.18684492	      0.03384215	      0.81923123	     -1.13643993	     49.45245180	    -33.72763405	    -23.87444739	     26.85163019	      0.00000000	      4.87431279	      0.46864936	     -5.91596591	      0.00000000	      0.00000000	     43.14911081	    -19.05818114	    -16.11117956	     17.46307287	      0.00000000	      5.22313116	      0.30478812	    -11.00122270	      0.00000000	      0.00000000
      3.13500000	      2.27824699	    -32.01145234	      5.39163586	      0.02571199	      0.81619571	     -1.13529010	     55.02691429	    -33.05033271	    -22.50549816	     28.62220825	      0.00000000	      3.93703809	      0.49955177	     -5.71301983	      0.00000000	      0.00000000	     50.01421649	    -20.48772342	    -14.65439517	     20.99856648	      0.00000000	      5.01307168	      0.36649412	     -9.72064224	      0.00000000	      0.00000000
      3.14000000	      3.14302891	    -28.84094972	      6.15470487	      0.03101907	      0.81717500	     -1.13614589	     50.80418603	    -34.46116505	    -24.93147313	     28.19954702	      0.00000000	      5.61958426	      0.49217494	     -5.59361858	      0.00000000	      0.00000000	     45.77510235	    -19.16639318	    -14.87821882	     19.15571901	      0.00000000	      4.74378262	      0.33433037	    -10.49841164	      0.00000000	      0.00000000
      3.14500000	      2.92656295	    -29.10911799	      6.29722209	      0.02968530	      0.81606221	     -1.13594908	     51.90371580	    -34.62164953	    -24.18526936	     28.97350244	      0.00000000	      5.73164321	      0.50568301	     -5.43482756	      0.00000000	      0.00000000	     46.36807364	    -19.34765795	    -15.48213423	     19.84093534	      0.00000000	      4.25053950	      0.34628965	    -10.28057809	      0.00000000	      0.00000000
      3.15000000	      2.86929761	    -29.70621704	      6.84073472	      0.02764882	      0.81456442	     -1.13608819	     53.75108871	    -35.15638211	    -23.09397746	     30.04722787	      0.00000000	      5.90131589	      0.52442306	     -5.20060338	      0.00000000	      0.00000000	     47.32774834	    -19.19927392	    -16.04990643	     20.59462140	      0.00000000	      3.90166501	      0.35944395	    -10.03034769	      0.00000000	      0.00000000
      3.15500000	      2.88020660	    -29.84848773	      6.99936015	      0.02661093	      0.81344292	     -1.13594154	     54.50958237	    -35.42461261	    -22.74097178	     30.72825190	      0.00000000	      6.15027274	      0.53630917	     -5.03629183	      0.00000000	      0.00000000	     47.85169079	    -19.28004934	    -16.39173096	     21.21530829	      0.00000000	      3.44660211	      0.37027698	     -9.85369957	      0.00000000	      0.00000000
      3.16000000	      2.79695895	    -30.04993055	      7.10025760	      0.02544396	      0.81223817	     -1.13571902	     55.38240546	    -35.59967340	    -22.30335571	     31.42326193	      0.00000000	      6.34112520	      0.54843938	     -4.89634422	      0.00000000	      0.00000000	     48.43669057	    -19.46434488	    -16.81718567	     21.89603366	      0.00000000	      2.93052130	      0.38215788	     -9.61362037	      0.00000000	      0.00000000
      3.16500000	      2.85721008	    -30.33914115	      7.33779372	      0.02407177	      0.81091222	     -1.13564784	     56.41148792	    -35.94278775	    -21.88178431	     32.18980371	      0.00000000	      6.60421620	      0.56181806	     -4.69910201	      0.00000000	      0.00000000	     49.16361750	    -19.50694710	    -17.12952929	     22.58972991	      0.00000000	      2.51907191	      0.39426516	     -9.39397690	      0.00000000	      0.00000000
      3.17000000	      2.93394964	    -30.48160245	      7.46551857	      0.02304714	      0.80966498	     -1.13546358	     57.10569602	    -36.22316685	    -21.69800487	     32.85486539	      0.00000000	      6.87225439	      0.57342558	     -4.53761160	      0.00000000	      0.00000000	     49.73140915	    -19.60821054	    -17.37103876	     23.22515688	      0.00000000	      2.04191438	      0.40535546	     -9.18262452	      0.00000000	      0.00000000
      3.17500000	      3.03449111	    -30.52238836	      7.36424227	      0.02227965	      0.80854163	     -1.13514422	     57.40457246	    -36.36451464	    -21.87731416	     33.37514537	      0.00000000	      7.14203971	      0.58250618	     -4.38896521	      0.00000000	      0.00000000	     50.28519591	    -19.86739449	    -17.45891008	     23.89410143	      0.00000000	      1.51556769	      0.41703074	     -8.94265117	      0.00000000	      0.00000000
      3.18000000	      2.98335178	    -30.62610215	      7.43968360	      0.02128231	      0.80726478	     -1.13491074	     58.08318446	    -36.53908390	    -21.57597144	     34.00232801	      0.00000000	      7.35941725	      0.59345258	     -4.22616538	      0.00000000	      0.00000000	     50.75814776	    -20.06843251	    -17.85658080	     24.52840090	      0.00000000	      0.98149882	      0.42810136	     -8.72142791	      0.00000000	      0.00000000
      3.18500000	      3.06767079	    -31.96814236	      7.56165584	      0.01765696	      0.80519472	     -1.13457659	     60.56614988	    -36.48100643	    -20.07388689	     34.97453938	      0.00000000	      6.61647991	      0.61042087	     -4.14887937	      0.00000000	      0.00000000	     52.99625915	    -20.33518034	    -17.47606630	     25.70432680	      0.00000000	      0.99823314	      0.44862513	     -8.43495992	      0.00000000	      0.00000000
      3.19000000	      3.22768756	    -30.83674726	      7.32924726	      0.01944616	      0.80477660	     -1.13435261	     58.91547147	    -36.89760930	    -21.79729317	     35.09176801	      0.00000000	      7.82305144	      0.61246689	     -3.92670822	      0.00000000	      0.00000000	     51.99903703	    -20.51337788	    -17.94661969	     25.84223933	      0.00000000	      0.02585576	      0.45103216	     -8.28138879	      0.00000000	      0.00000000
